:SAMPLES-PER-SECOND 30
:FULLY-SPECIFIED
:DEGREES
140
root  -68.9772 40.4348 -11.4732 -3.28343 -84.3354 -0.692123
RightUpLeg  -13.2073 -8.91201 -1.59788
RightLeg  11.9421 -10.5992 4.44937
RightFoot  5.84481 1.20145 -7.66892
RightToes  -5.8209e-011 0 -3.6325e-017
Spine  9.61106 -0.511052 9.81602
Spine1  5.11348 0.611297 -1.68295
HEad  -18.5987 -4.845 -2.41574
LeftShoulder1  9.05231 -12.3154 -49.9514
LeftArm  0.818514 15.8052 -26.4474
LeftForeArm  31.0058 -31.8162 -5.23678
LeftHand  -0.244104 0.0205437 5.32207
RightShoulder  5.8098 9.66439 38.0733
RightArm  3.51328 -15.059 38.4964
RightForeArm  0.217062 28.2672 6.10358
RightHand  -0.994352 2.35031 -15.0485
LeftUpLeg  -22.8686 11.9501 1.76269
LeftLeg  59.3932 3.66289 7.21192
LeftFoot  -7.51861 0.217187 -5.14228
LeftToes  -6.09394e-011 -3.18376e-011 -2.71738e-012
141
root  -69.5856 40.6186 -11.4936 -4.97964 -85.1816 0.977219
RightUpLeg  -11.6728 -8.42689 -1.52344
RightLeg  10.823 -10.2318 4.55379
RightFoot  5.40155 1.19277 -7.83458
RightToes  -5.8209e-011 0 -3.6325e-017
Spine  9.55733 -0.381232 9.96214
Spine1  5.79998 0.789357 -2.0156
HEad  -20.1465 -4.52577 -3.14692
LeftShoulder1  9.08925 -12.2654 -50.3111
LeftArm  -0.763973 16.9016 -25.4935
LeftForeArm  25.98 -27.1424 -4.41285
LeftHand  -0.244104 0.0205437 5.32207
RightShoulder  5.80445 9.67753 37.9919
RightArm  4.14657 -13.3807 39.4702
RightForeArm  -0.34581 28.2221 6.1229
RightHand  -0.926063 2.3294 -14.0834
LeftUpLeg  -22.3259 13.558 1.73591
LeftLeg  50.699 4.16347 5.90588
LeftFoot  -9.59946 0.137168 -5.32089
LeftToes  -6.09394e-011 -3.18376e-011 -2.71738e-012
142
root  -70.2099 40.7531 -11.5113 -7.2267 -86.2699 3.0022
RightUpLeg  -10.1964 -8.12798 -1.30974
RightLeg  10.2806 -9.57775 4.46666
RightFoot  4.59127 1.11595 -7.73168
RightToes  -5.8209e-011 0 -3.6325e-017
Spine  9.35583 -0.344141 9.8249
Spine1  6.22287 0.856715 -2.29547
HEad  -20.0396 -3.21627 -3.67689
LeftShoulder1  8.9184 -12.1164 -49.8431
LeftArm  -1.87736 18.3498 -24.9079
LeftForeArm  20.4293 -22.4985 -3.9686
LeftHand  -0.244104 0.0205437 5.32207
RightShoulder  5.92749 9.82204 38.4208
RightArm  3.04255 -11.9216 39.8184
RightForeArm  -0.0357861 26.5163 5.69954
RightHand  -0.956776 2.823 -13.6908
LeftUpLeg  -19.6145 14.1023 2.04127
LeftLeg  39.688 3.60751 3.62807
LeftFoot  -11.1004 0.0805134 -5.9465
LeftToes  -6.09394e-011 -3.18376e-011 -2.71738e-012
143
root  -70.8449 40.8327 -11.484 0.21196 -87.6296 -4.78864
RightUpLeg  -8.81938 -7.91095 -0.865754
RightLeg  10.1822 -8.58025 4.6271
RightFoot  3.94691 1.06748 -7.73555
RightToes  -5.8209e-011 0 -3.6325e-017
Spine  9.02616 -0.359797 10.4934
Spine1  5.85882 1.09537 -3.39353
HEad  -17.5206 -1.50731 -3.68914
LeftShoulder1  8.47606 -11.8949 -48.0311
LeftArm  -4.5108 20.2243 -24.5329
LeftForeArm  20.6938 -17.8482 -4.43913
LeftHand  -0.244104 0.0205437 5.32207
RightShoulder  6.15406 10.06 39.266
RightArm  0.996709 -11.4778 38.9715
RightForeArm  0.952399 23.8232 5.08227
RightHand  -1.05402 3.43227 -14.0589
LeftUpLeg  -15.5313 13.1983 2.76424
LeftLeg  28.193 1.93423 1.45401
LeftFoot  -10.4795 0.106324 -5.87591
LeftToes  -6.09394e-011 -3.18376e-011 -2.71738e-012
144
root  -71.4483 40.8901 -11.3928 43.1091 -88.8226 -48.1231
RightUpLeg  -7.35859 -7.57699 -0.171738
RightLeg  9.9963 -7.29474 4.95471
RightFoot  3.38182 1.04898 -7.92111
RightToes  -5.8209e-011 0 -3.6325e-017
Spine  8.77284 -0.490353 12.2702
Spine1  4.92107 1.60533 -5.95281
HEad  -13.6797 0.0599501 -2.86539
LeftShoulder1  7.45613 -11.2621 -43.9418
LeftArm  -8.3919 22.2811 -24.8496
LeftForeArm  25.5771 -13.6236 -4.7609
LeftHand  -0.244104 0.0205437 5.32207
RightShoulder  6.41706 10.2494 40.4959
RightArm  -2.03353 -11.9853 36.4415
RightForeArm  1.9248 21.2039 4.85733
RightHand  -1.04954 3.5515 -13.8188
LeftUpLeg  -11.5603 11.4719 3.63554
LeftLeg  19.4017 1.23193 0.767467
LeftFoot  -7.4418 0.170759 -3.95153
LeftToes  -6.09394e-011 -3.18376e-011 -2.71738e-012
145
root  -71.9827 40.9741 -11.3001 106.721 -88.6563 -111.952
RightUpLeg  -5.91462 -7.18248 0.293846
RightLeg  9.27385 -6.39769 5.08448
RightFoot  2.82306 0.995566 -7.83752
RightToes  -5.8209e-011 0 -3.6325e-017
Spine  7.97775 -0.468191 12.3225
Spine1  5.04347 1.60915 -6.15667
HEad  -12.3953 1.37824 -2.90878
LeftShoulder1  6.28247 -10.0139 -40.1901
LeftArm  -11.6114 23.2828 -24.5644
LeftForeArm  27.6114 -10.4196 -4.26634
LeftHand  -0.244104 0.0205437 5.32207
RightShoulder  6.20513 10.0291 39.7276
RightArm  -6.104 -12.1228 33.0151
RightForeArm  3.23801 18.7112 5.05771
RightHand  -1.00876 3.64932 -13.1612
LeftUpLeg  -9.23215 9.50176 3.96405
LeftLeg  15.4271 2.75708 1.1035
LeftFoot  -3.79117 0.0724491 -0.737051
LeftToes  -6.09394e-011 -3.18376e-011 -2.71738e-012
146
root  -72.4394 41.0809 -11.2625 108.971 -88.5805 -113.917
RightUpLeg  -4.98571 -6.97148 0.25019
RightLeg  8.34461 -6.32215 4.96716
RightFoot  2.45811 0.912429 -7.38564
RightToes  -5.8209e-011 0 -3.6325e-017
Spine  7.10224 -0.409701 10.3247
Spine1  4.68888 1.09446 -4.49831
HEad  -11.5476 2.52915 -2.97496
LeftShoulder1  5.08289 -8.60676 -35.8655
LeftArm  -13.972 24.3659 -23.6153
LeftForeArm  24.6447 -8.48797 -3.33583
LeftHand  -0.244104 0.0205437 5.32207
RightShoulder  5.77652 9.60601 38.0149
RightArm  -9.94039 -12.5705 28.1717
RightForeArm  3.64175 16.3534 5.23827
RightHand  -1.02745 3.80061 -13.1892
LeftUpLeg  -8.55827 7.58606 3.66155
LeftLeg  14.708 4.95747 1.5928
LeftFoot  -1.75187 -0.110519 1.49569
LeftToes  -6.09394e-011 -3.18376e-011 -2.71738e-012
147
root  -72.8407 41.2003 -11.2586 108.381 -89.0021 -112.678
RightUpLeg  -4.5695 -6.97283 -0.0734154
RightLeg  7.43844 -6.36443 4.81374
RightFoot  2.40644 0.863553 -7.01297
RightToes  -5.8209e-011 0 -3.6325e-017
Spine  6.4083 -0.202506 7.76812
Spine1  3.74416 0.713292 -2.66289
HEad  -10.5787 3.08873 -2.61884
LeftShoulder1  4.05854 -7.32025 -31.4308
LeftArm  -15.6956 25.337 -21.0044
LeftForeArm  20.4378 -8.14815 -2.48743
LeftHand  -0.244104 0.0205437 5.32207
RightShoulder  5.17431 8.87642 35.8144
RightArm  -12.327 -13.2873 22.0367
RightForeArm  2.27361 13.9949 5.38612
RightHand  -0.975047 3.19916 -13.3608
LeftUpLeg  -8.07814 6.69485 3.23141
LeftLeg  13.7806 5.90859 1.64096
LeftFoot  -1.53552 -0.134748 1.67778
LeftToes  -6.09394e-011 -3.18376e-011 -2.71738e-012
148
root  -73.2075 41.3358 -11.233 145.058 -88.996 -148.707
RightUpLeg  -4.15307 -6.8574 -0.420306
RightLeg  6.29385 -5.7978 4.7012
RightFoot  2.53275 0.85318 -6.85652
RightToes  -5.8209e-011 0 -3.6325e-017
Spine  5.97694 0.278862 6.3229
Spine1  2.61932 1.0767 -2.54076
HEad  -9.56072 2.96903 -1.99232
LeftShoulder1  3.21392 -6.17454 -27.043
LeftArm  -16.5868 25.7413 -16.7358
LeftForeArm  18.5446 -9.42692 -2.00299
LeftHand  -0.244104 0.0205437 5.32207
RightShoulder  4.46358 7.92157 33.1205
RightArm  -13.3479 -14.1024 15.4107
RightForeArm  -0.00748634 11.3871 5.47442
RightHand  -0.836479 2.21082 -12.9432
LeftUpLeg  -6.74754 6.94536 3.24636
LeftLeg  11.2316 6.19754 0.597944
LeftFoot  -1.62913 -0.0654807 0.890698
LeftToes  -6.09394e-011 -3.18376e-011 -2.71738e-012
149
root  -73.5368 41.4605 -11.1623 178.749 -88.2016 178.144
RightUpLeg  -3.65903 -6.63822 -0.779351
RightLeg  5.04783 -4.94601 4.54417
RightFoot  2.61009 0.815665 -6.50869
RightToes  -5.8209e-011 0 -3.6325e-017
Spine  5.58253 0.728764 6.13532
Spine1  1.79164 1.78278 -4.0426
HEad  -8.77646 2.60354 -1.42295
LeftShoulder1  2.47002 -5.02313 -22.595
LeftArm  -16.6482 25.354 -11.9313
LeftForeArm  18.6081 -11.6778 -1.96051
LeftHand  -0.244104 0.0205437 5.32207
RightShoulder  3.69482 6.81391 29.8397
RightArm  -13.8962 -14.4219 9.41856
RightForeArm  -3.1584 8.35714 5.29191
RightHand  -0.880623 2.30613 -13.4048
LeftUpLeg  -5.05025 7.12702 3.65129
LeftLeg  8.26631 7.18391 -1.23757
LeftFoot  -1.08097 -0.0118189 0.205565
LeftToes  -6.09394e-011 -3.18376e-011 -2.71738e-012
150
root  -73.8123 41.5448 -11.0568 -170.941 -87.9095 168.433
RightUpLeg  -3.44952 -6.54128 -1.20221
RightLeg  4.1668 -4.70355 4.35957
RightFoot  2.55654 0.723148 -5.78027
RightToes  -5.8209e-011 0 -3.6325e-017
Spine  5.04642 0.732765 6.30587
Spine1  1.29691 2.03352 -5.58187
HEad  -8.37756 2.32582 -1.08559
LeftShoulder1  1.85159 -3.90809 -18.3608
LeftArm  -16.5884 24.4118 -7.61293
LeftForeArm  18.6436 -13.9263 -2.15881
LeftHand  -0.244104 0.0205437 5.32207
RightShoulder  2.87816 5.46342 25.9757
RightArm  -15.6343 -13.9613 4.94982
RightForeArm  -7.41964 5.56614 4.51157
RightHand  -1.06391 2.88893 -15.1011
LeftUpLeg  -4.10293 6.58375 3.76512
LeftLeg  6.28655 8.39612 -2.62859
LeftFoot  -0.474939 0.0172493 -0.153365
LeftToes  -6.09394e-011 -3.18376e-011 -2.71738e-012
